<svg width="251" height="67" viewBox="0 0 251 67" fill="none" xmlns="http://www.w3.org/2000/svg">
<g clip-path="url(#clip0_1_72)">
<path d="M13.0888 7.93752V1.33887H0V41.0636H13.133V34.1175C13.133 31.8626 13.4718 29.6122 14.2378 27.4945C16.7971 20.3758 23.3393 15.1447 31.1677 14.4831V1.36985C24.4042 1.70841 18.1697 4.1049 13.0865 7.93752" fill="#F93549"/>
<path d="M54.197 9.24072L44.8985 18.539C49.5765 22.1504 52.5963 27.8063 52.5963 34.1638C52.5963 34.2744 52.5919 34.3851 52.5853 34.4957H65.6785C65.6785 34.3851 65.6829 34.2744 65.6829 34.1638C65.6829 24.2061 61.2218 15.2707 54.1948 9.24072" fill="#F5EA61"/>
<path d="M32.8392 53.9176H32.8503V66.9998C50.8451 66.9888 65.4969 52.4394 65.6785 34.4956H52.5897C52.4082 45.2322 43.6211 53.9132 32.8392 53.9198" fill="#F93549"/>
<path d="M32.8392 53.9177C26.4941 53.9133 20.8464 50.9061 17.2266 46.2437L7.91479 55.5021C13.9367 62.5301 22.8699 66.9956 32.8348 67H32.8503V53.9177H32.8392Z" fill="#FCA0C9"/>
<path d="M93.7312 11.5221C94.2161 10.2364 95.0131 9.26722 96.1289 8.62107C97.2447 7.97493 98.4867 7.65186 99.8594 7.65186V13.4539C98.2742 13.268 96.8551 13.5911 95.6042 14.4231C94.3577 15.2551 93.7312 16.6381 93.7312 18.5699V28.2002H88.5329V8.0568H93.7312V11.5221Z" fill="#201747"/>
<path d="M106.506 20.2673C107.203 22.79 109.1 24.0513 112.189 24.0513C114.177 24.0513 115.682 23.3808 116.701 22.0376L120.896 24.454C118.908 27.3307 115.979 28.7624 112.109 28.7624C108.777 28.7624 106.103 27.7578 104.088 25.7463C102.073 23.7282 101.064 21.1901 101.064 18.1275C101.064 15.065 102.058 12.5623 104.046 10.5353C106.034 8.50836 108.584 7.49268 111.704 7.49268C114.662 7.49268 117.099 8.51722 119.019 10.5552C120.943 12.5977 121.901 15.1203 121.901 18.1275C121.901 18.798 121.835 19.515 121.7 20.2673H106.508H106.506ZM106.426 16.2356H116.703C116.411 14.8636 115.8 13.8435 114.87 13.173C113.94 12.5025 112.886 12.164 111.706 12.164C110.307 12.164 109.151 12.5224 108.239 13.2328C107.325 13.9431 106.72 14.9433 106.428 16.2356" fill="#201747"/>
<path d="M140.647 0H145.845V28.2025H140.647V25.8259C139.112 27.7843 136.936 28.7668 134.116 28.7668C131.295 28.7668 129.083 27.7378 127.159 25.6843C125.242 23.6308 124.281 21.1082 124.281 18.1319C124.281 15.1557 125.24 12.633 127.159 10.5751C129.083 8.5216 131.399 7.49264 134.116 7.49264C136.832 7.49264 139.112 8.47734 140.647 10.4335V0ZM131.071 22.219C132.132 23.2789 133.469 23.8078 135.085 23.8078C136.701 23.8078 138.023 23.2789 139.073 22.219C140.122 21.1591 140.647 19.7982 140.647 18.1319C140.647 16.4657 140.122 15.1003 139.073 14.0404C138.023 12.9804 136.695 12.4516 135.085 12.4516C133.476 12.4516 132.132 12.9804 131.071 14.0404C130.011 15.1003 129.482 16.4612 129.482 18.1319C129.482 19.8026 130.011 21.1591 131.071 22.219Z" fill="#201747"/>
<path d="M100.258 41.8271C102.974 41.8271 105.29 42.8561 107.214 44.9096C109.131 46.9675 110.097 49.4857 110.097 52.4664C110.097 55.4471 109.134 57.9653 107.214 60.0188C105.29 62.0723 102.974 63.1012 100.258 63.1012C97.5414 63.1012 95.261 62.1165 93.7312 60.1604V62.537H88.5262V34.3345H93.7312V44.768C95.261 42.8096 97.4351 41.8271 100.258 41.8271ZM95.3009 56.5535C96.3503 57.6134 97.6786 58.1423 99.2926 58.1423C100.907 58.1423 102.239 57.6134 103.3 56.5535C104.36 55.4935 104.889 54.1326 104.889 52.4664C104.889 50.8001 104.36 49.4348 103.3 48.3749C102.239 47.3149 100.902 46.7861 99.2926 46.7861C97.6831 46.7861 96.3503 47.3149 95.3009 48.3749C94.2515 49.4348 93.7312 50.8023 93.7312 52.4664C93.7312 54.1304 94.2515 55.4935 95.3009 56.5535Z" fill="#201747"/>
<path d="M129.074 42.3934H134.279V62.539H129.074V60.1624C127.52 62.1207 125.328 63.1032 122.508 63.1032C119.687 63.1032 117.515 62.0743 115.594 60.0208C113.677 57.9673 112.711 55.4491 112.711 52.4684C112.711 49.4877 113.674 46.9695 115.594 44.9116C117.518 42.8581 119.818 41.8291 122.508 41.8291C125.198 41.8291 127.52 42.8138 129.074 44.77V42.3934ZM119.484 56.5555C120.529 57.6154 121.861 58.1443 123.471 58.1443C125.08 58.1443 126.424 57.6154 127.485 56.5555C128.545 55.4955 129.074 54.1346 129.074 52.4684C129.074 50.8021 128.545 49.4368 127.485 48.3769C126.424 47.3169 125.087 46.788 123.471 46.788C121.855 46.788 120.529 47.3169 119.484 48.3769C118.434 49.4368 117.914 50.8043 117.914 52.4684C117.914 54.1324 118.434 55.4955 119.484 56.5555Z" fill="#201747"/>
<path d="M150.197 41.8291C152.403 41.8291 154.22 42.5704 155.659 44.0441C157.098 45.5223 157.816 47.5648 157.816 50.1693V62.5345H152.617V50.8154C152.617 49.4744 152.254 48.4432 151.532 47.7329C150.806 47.0226 149.837 46.6641 148.63 46.6641C147.282 46.6641 146.212 47.0824 145.404 47.9144C144.596 48.7464 144.193 49.9922 144.193 51.6585V62.5345H138.995V42.3956H144.193V44.6505C145.455 42.7696 147.459 41.8313 150.2 41.8313" fill="#201747"/>
<path d="M177.562 42.3934H182.767V62.539H177.562V60.1624C176.008 62.1207 173.816 63.1032 170.995 63.1032C168.175 63.1032 166.003 62.0743 164.081 60.0208C162.164 57.9673 161.199 55.4491 161.199 52.4684C161.199 49.4877 162.162 46.9695 164.081 44.9116C166.005 42.8581 168.305 41.8291 170.995 41.8291C173.685 41.8291 176.008 42.8138 177.562 44.77V42.3934ZM167.971 56.5555C169.02 57.6154 170.349 58.1443 171.958 58.1443C173.568 58.1443 174.912 57.6154 175.972 56.5555C177.033 55.4955 177.562 54.1346 177.562 52.4684C177.562 50.8021 177.033 49.4368 175.972 48.3769C174.912 47.3169 173.574 46.788 171.958 46.788C170.342 46.788 169.02 47.3169 167.971 48.3769C166.922 49.4368 166.401 50.8043 166.401 52.4684C166.401 54.1324 166.922 55.4955 167.971 56.5555Z" fill="#201747"/>
<path d="M198.685 41.8291C200.885 41.8291 202.707 42.5704 204.147 44.0441C205.586 45.5223 206.303 47.5648 206.303 50.1693V62.5345H201.105V50.8154C201.105 49.4744 200.742 48.4432 200.015 47.7329C199.294 47.0226 198.324 46.6641 197.117 46.6641C195.769 46.6641 194.695 47.0824 193.892 47.9144C193.084 48.7464 192.681 49.9922 192.681 51.6585V62.5345H187.482V42.3956H192.681V44.6505C193.943 42.7696 195.946 41.8313 198.687 41.8313" fill="#201747"/>
<path d="M226.053 42.3934H231.252V62.539H226.053V60.1624C224.495 62.1207 222.303 63.1032 219.482 63.1032C216.662 63.1032 214.49 62.0743 212.568 60.0208C210.651 57.9673 209.69 55.4491 209.69 52.4684C209.69 49.4877 210.649 46.9695 212.568 44.9116C214.492 42.8581 216.799 41.8291 219.482 41.8291C222.303 41.8291 224.495 42.8138 226.053 44.77V42.3934ZM216.458 56.5555C217.508 57.6154 218.836 58.1443 220.45 58.1443C222.064 58.1443 223.397 57.6154 224.457 56.5555C225.518 55.4955 226.051 54.1346 226.051 52.4684C226.051 50.8021 225.515 49.4368 224.457 48.3769C223.397 47.3169 222.06 46.788 220.45 46.788C218.84 46.788 217.508 47.3169 216.458 48.3769C215.409 49.4368 214.889 50.8043 214.889 52.4684C214.889 54.1324 215.409 55.4955 216.458 56.5555Z" fill="#201747"/>
<path d="M240.601 48.1133C240.601 48.6532 240.96 49.0869 241.67 49.4189C242.381 49.7574 243.245 50.054 244.27 50.3062C245.29 50.5629 246.309 50.886 247.334 51.2754C248.354 51.6649 249.216 52.3155 249.933 53.2271C250.644 54.141 250.998 55.2807 250.998 56.6526C250.998 58.7216 250.225 60.3104 248.682 61.4257C247.137 62.5409 245.208 63.1008 242.897 63.1008C238.757 63.1008 235.936 61.5009 234.433 58.3034L238.952 55.7653C239.543 57.5112 240.86 58.383 242.899 58.383C244.752 58.383 245.68 57.8077 245.68 56.6526C245.68 56.1127 245.326 55.679 244.615 55.3404C243.898 55.0085 243.034 54.7053 242.011 54.4376C240.991 54.1698 239.972 53.8312 238.952 53.4285C237.927 53.0258 237.063 52.3885 236.353 51.5166C235.635 50.6448 235.283 49.5494 235.283 48.2328C235.283 46.2457 236.016 44.6812 237.48 43.5416C238.943 42.3954 240.765 41.8267 242.941 41.8267C244.582 41.8267 246.072 42.2006 247.418 42.9375C248.76 43.6744 249.82 44.7277 250.597 46.0996L246.165 48.516C245.518 47.1441 244.445 46.4625 242.939 46.4625C242.268 46.4625 241.713 46.6086 241.268 46.9007C240.823 47.1994 240.601 47.6021 240.601 48.1111" fill="#201747"/>
</g>
<defs>
<clipPath id="clip0_1_72">
<rect width="251" height="67" fill="white"/>
</clipPath>
</defs>
</svg>
